<svg width="512" height="512" viewBox="0 0 512 512" fill="none" xmlns="http://www.w3.org/2000/svg">
<g filter="url(#filter0_d_1430_219)">
<path d="M420.016 151.398C420.016 160.878 416.63 168.833 409.859 175.266C403.427 182.036 395.471 185.422 385.992 185.422H182.867C176.435 185.76 171.018 187.284 166.617 189.992C162.555 192.362 159.508 195.24 157.477 198.625C155.445 201.672 154.43 204.888 154.43 208.273C154.43 211.659 155.445 215.044 157.477 218.43C159.508 221.477 162.555 224.354 166.617 227.062C171.018 229.432 176.435 230.786 182.867 231.125H327.086C350.784 231.802 370.25 237.388 385.484 247.883C401.057 258.039 412.06 269.888 418.492 283.43C425.263 296.633 428.648 310.174 428.648 324.055C428.648 337.596 425.263 351.138 418.492 364.68C411.721 377.883 400.719 389.732 385.484 400.227C370.25 410.383 350.784 415.461 327.086 415.461H324.039C322.008 415.799 319.977 415.969 317.945 415.969H125.992C116.513 415.969 108.388 412.753 101.617 406.32C95.1849 399.549 91.9688 391.424 91.9688 381.945C91.9688 372.466 95.3542 364.51 102.125 358.078C108.557 351.307 116.513 347.922 125.992 347.922H330.133C336.565 348.26 341.812 347.076 345.875 344.367C350.276 341.659 353.492 338.612 355.523 335.227C357.555 331.503 358.57 327.779 358.57 324.055C358.57 321.685 357.555 318.469 355.523 314.406C353.492 310.005 350.276 306.451 345.875 303.742C341.812 301.034 336.565 299.51 330.133 299.172H185.914C162.216 298.495 142.581 293.078 127.008 282.922C111.773 272.766 100.771 261.255 94 248.391C87.5677 235.188 84.3516 221.815 84.3516 208.273C84.3516 195.07 87.737 182.036 94.5078 169.172C101.279 155.969 112.281 144.289 127.516 134.133C142.75 123.977 162.216 118.56 185.914 117.883H188.961C190.992 117.544 193.023 117.375 195.055 117.375H385.992C395.471 117.375 403.427 120.76 409.859 127.531C416.63 133.964 420.016 141.919 420.016 151.398Z" fill="#0094FF"/>
</g>
<defs>
<filter id="filter0_d_1430_219" x="80.3516" y="117.375" width="352.297" height="312.594" filterUnits="userSpaceOnUse" color-interpolation-filters="sRGB">
<feFlood flood-opacity="0" result="BackgroundImageFix"/>
<feColorMatrix in="SourceAlpha" type="matrix" values="0 0 0 0 0 0 0 0 0 0 0 0 0 0 0 0 0 0 127 0" result="hardAlpha"/>
<feOffset dy="10"/>
<feGaussianBlur stdDeviation="2"/>
<feComposite in2="hardAlpha" operator="out"/>
<feColorMatrix type="matrix" values="0 0 0 0 0 0 0 0 0 0 0 0 0 0 0 0 0 0 0.25 0"/>
<feBlend mode="normal" in2="BackgroundImageFix" result="effect1_dropShadow_1430_219"/>
<feBlend mode="normal" in="SourceGraphic" in2="effect1_dropShadow_1430_219" result="shape"/>
</filter>
</defs>
</svg>
