<svg width="24" height="24" viewBox="0 0 24 24" fill="none" xmlns="http://www.w3.org/2000/svg">
<path d="M3.0684 21H20.9316C22.9642 21 24 19.9638 24 17.9114V7.47981C24 5.42737 22.9642 4.40115 20.9316 4.40115H18.1368C17.3648 4.40115 17.1303 4.24174 16.6906 3.74358L15.9088 2.84688C15.4202 2.2989 14.9218 2 13.9153 2H10.0163C9.00977 2 8.5114 2.2989 8.0228 2.84688L7.24104 3.74358C6.8013 4.23178 6.557 4.40115 5.79479 4.40115H3.0684C1.02606 4.40115 0 5.42737 0 7.47981V17.9114C0 19.9638 1.02606 21 3.0684 21ZM3.08795 19.3959C2.13029 19.3959 1.57329 18.8679 1.57329 17.8317V7.56948C1.57329 6.5333 2.13029 6.00524 3.08795 6.00524H6.18567C7.06515 6.00524 7.54397 5.83587 8.03257 5.27792L8.79479 4.40115C9.35179 3.7635 9.64495 3.60409 10.5049 3.60409H13.4267C14.2866 3.60409 14.5798 3.7635 15.1368 4.40115L15.899 5.27792C16.3876 5.83587 16.8664 6.00524 17.7459 6.00524H20.9023C21.8697 6.00524 22.4267 6.5333 22.4267 7.56948V17.8317C22.4267 18.8679 21.8697 19.3959 20.9023 19.3959H3.08795ZM12 17.9612C14.9511 17.9612 17.3257 15.5501 17.3257 12.5113C17.3257 9.48243 14.9609 7.07132 12 7.07132C9.03909 7.07132 6.66449 9.48243 6.66449 12.5113C6.66449 15.5501 9.03909 17.9612 12 17.9612ZM17.7264 8.84478C17.7264 9.54221 18.2932 10.0902 18.9577 10.0902C19.6124 10.0802 20.1694 9.53225 20.1694 8.84478C20.1694 8.18721 19.6124 7.60933 18.9577 7.60933C18.2932 7.60933 17.7264 8.18721 17.7264 8.84478ZM12 16.4468C9.87948 16.4468 8.14007 14.7032 8.14007 12.5113C8.14007 10.3293 9.86971 8.57577 12 8.57577C14.1303 8.57577 15.8502 10.3293 15.8502 12.5113C15.8502 14.7032 14.1303 16.4468 12 16.4468Z" fill="#65AFF9"/>
</svg>
