<svg width="24" height="24" viewBox="0 0 24 24" fill="none" xmlns="http://www.w3.org/2000/svg">
<path d="M3.19593 21H20.8041C22.9415 21 24 19.9929 24 17.9788V6.03096C24 4.01684 22.9415 3 20.8041 3H3.19593C1.0687 3 0 4.01684 0 6.03096V17.9788C0 19.9929 1.0687 21 3.19593 21ZM16.9059 11.9951C16.4478 11.604 15.9186 11.3889 15.369 11.3889C14.8092 11.3889 14.3104 11.5747 13.8422 11.9756L9.24173 15.9256L7.35878 14.2928C6.9313 13.9212 6.4631 13.7355 5.98473 13.7355C5.52672 13.7355 5.09924 13.9115 4.67176 14.283L1.63868 16.9131V6.11896C1.63868 5.10212 2.19847 4.57414 3.21628 4.57414H20.7837C21.7913 4.57414 22.3613 5.10212 22.3613 6.11896V16.9131L16.9059 11.9951ZM7.5827 12.0929C8.89567 12.0929 9.97456 11.0565 9.97456 9.78544C9.97456 8.52417 8.89567 7.478 7.5827 7.478C6.25954 7.478 5.18066 8.52417 5.18066 9.78544C5.18066 11.0565 6.25954 12.0929 7.5827 12.0929Z" fill="#65AFF9"/>
</svg>
